<svg height="56" viewBox="0 0 41 56" width="41" xmlns="http://www.w3.org/2000/svg"><path d="m0 0h41v56h-41z" fill="none"/><path d="m32 8v-1c0-.5523-.4477-1-1-1h-28c-.5523 0-1 .4477-1 1v42c0 .5523.4477 1 1 1h7c.0774.832.5499 1.5761 1.27 2h-8.27c-1.6569 0-3-1.3431-3-3v-42c0-1.6569 1.3431-3 3-3h28c1.6569 0 3 1.3431 3 3v1zm9 4v37c0 1.6569-1.3431 3-3 3h-24c-1.6569 0-3-1.3431-3-3v-37c0-1.6569 1.3431-3 3-3h24c1.6569 0 3 1.3431 3 3zm-2 0c0-.5523-.4477-1-1-1h-24c-.5522 0-1 .4477-1 1v37c0 .5522.4478 1 1 1h24c.5523 0 1-.4478 1-1z" fill="#1d1d1f"/></svg>